<?xml version="1.0" encoding="UTF-8"?> <!-- Generator: Adobe Illustrator 24.1.1, SVG Export Plug-In . SVG Version: 6.00 Build 0) --> <svg xmlns="http://www.w3.org/2000/svg" xmlns:xlink="http://www.w3.org/1999/xlink" version="1.1" id="Layer_1" x="0px" y="0px" viewBox="0 0 57.7 57.7" style="enable-background:new 0 0 57.7 57.7;" xml:space="preserve"> <style type="text/css"> .st0{fill:#F2EEBE;} .st1{fill:#F27124;} </style> <polygon class="st0" points="16.5,9.3 13.1,14.5 12.2,21.7 29.5,48.1 31.4,52 46.3,36.6 52,21.7 51.5,11.6 47.2,6.4 33.8,12.6 28.5,17.9 23.2,8.8 "></polygon> <path class="st1" d="M36.9,6.4c-3.6,0-7,1.5-9.6,4c-2.5-2.6-6-4-9.6-4c-7.5,0-13.6,6.3-13.6,14c0,9.2,19.5,29.5,21.7,31.8l1.4,1.5 l1.5-1.4C31,50,50.5,30.6,50.5,20.4C50.5,12.7,44.4,6.4,36.9,6.4 M27.4,47.9c-8-8.4-19.2-22.1-19.2-27.5c0-5.5,4.3-9.9,9.6-9.9 c3.1,0,6.1,1.6,7.9,4.3l1.7,2.5l1.7-2.5c1.8-2.7,4.7-4.3,7.9-4.3c5.3,0,9.6,4.5,9.6,10C46.5,27,33.8,41.3,27.4,47.9"></path> </svg> 