<?xml version="1.0" encoding="UTF-8"?> <!-- Generator: Adobe Illustrator 24.0.2, SVG Export Plug-In . SVG Version: 6.00 Build 0) --> <svg xmlns="http://www.w3.org/2000/svg" xmlns:xlink="http://www.w3.org/1999/xlink" version="1.1" id="Layer_1" x="0px" y="0px" viewBox="0 0 74.87 55.57" style="enable-background:new 0 0 74.87 55.57;" xml:space="preserve"> <style type="text/css"> .st0{fill:#F3EEBF;} .st1{fill:#1D334B;} </style> <path class="st0" d="M21.04,1.75c-0.44,2.81-2.41,6.02-2.41,6.02L20.63,13l2.41,1.61L27.46,13l1.2-7.23l-1.61-4.42L21.04,1.75z"></path> <path class="st0" d="M18.63,19.42l-3.1,5.1l0.52,9.13l-0.58,9.53l0.56,11.38l4.21,0.6l0.8-11.65l2.41,2.01l0.4,8.84l3.02,0.16 c0.26,0.03,0.47-1.19,0.39-1.43l-0.2-8.37c0,0,5.22,1.2,5.22,0c0-1.2-0.4-19.68-0.4-19.68l-0.4-4.82l15.66,1.61l0.4-3.61 L18.63,19.42z"></path> <path class="st0" d="M35.09,10.18c0,0-2.01,4.02,1.61,3.61c3.61-0.4,11.65,1.61,11.65,1.61l0.4,8.03l-7.63-0.4l-4.82,8.84l8.43,5.22 l26.51-0.4v-25.7L35.09,10.18z"></path> <g> <line class="st1" x1="17.35" y1="43.18" x2="17.35" y2="53.49"></line> <rect x="15.46" y="43.18" class="st1" width="3.78" height="10.58"></rect> <line class="st1" x1="23.84" y1="43.18" x2="23.84" y2="53.49"></line> <rect x="21.95" y="43.18" class="st1" width="3.78" height="10.58"></rect> <path class="st1" d="M20.6,16.36c-5.56,0-10.09,4.52-10.09,10.09v18.23h20.17V26.44C30.68,20.88,26.16,16.36,20.6,16.36z M26.9,40.89H14.29V26.44c0-3.48,2.83-6.3,6.3-6.3c3.48,0,6.3,2.83,6.3,6.3V40.89z"></path> <path class="st1" d="M20.6,0.78c-3.73,0-6.76,3.04-6.76,6.78c0,3.74,3.03,6.78,6.76,6.78c3.73,0,6.76-3.04,6.76-6.78 C27.35,3.82,24.32,0.78,20.6,0.78z M20.6,10.56c-1.64,0-2.98-1.34-2.98-3c0-1.65,1.33-3,2.98-3c1.64,0,2.97,1.34,2.97,3 C23.57,9.21,22.24,10.56,20.6,10.56z"></path> <polygon class="st1" points="46.26,20.94 23.19,20.5 23.29,16.72 46.36,17.15 "></polygon> <rect x="0.83" y="28.57" transform="matrix(0.5015 -0.8651 0.8651 0.5015 -21.9193 22.8888)" class="st1" width="16.14" height="3.78"></rect> <g> <polygon class="st1" points="31.71,7.59 31.71,10.97 66.59,10.97 66.59,31.85 34.29,31.85 34.29,35.23 69.97,35.23 69.97,7.59 "></polygon> <rect x="53.93" y="21.02" class="st1" width="11.49" height="3.39"></rect> <rect x="53.93" y="15.77" class="st1" width="11.49" height="3.39"></rect> <rect x="47.93" y="26.27" class="st1" width="17.49" height="3.39"></rect> </g> </g> </svg> 