<?xml version="1.0" encoding="UTF-8"?> <!-- Generator: Adobe Illustrator 24.0.2, SVG Export Plug-In . SVG Version: 6.00 Build 0) --> <svg xmlns="http://www.w3.org/2000/svg" xmlns:xlink="http://www.w3.org/1999/xlink" version="1.1" id="Layer_1" x="0px" y="0px" viewBox="0 0 74.87 55.57" style="enable-background:new 0 0 74.87 55.57;" xml:space="preserve"> <style type="text/css"> .st0{fill:#F3EEBF;} .st1{fill:#1D334B;} </style> <polygon class="st0" points="19.2,7.11 20.87,10.17 19.7,14.61 15.13,16.57 14.13,8.8 "></polygon> <polygon class="st0" points="12.65,22.17 11.35,25.43 11.75,36.25 11.37,48.34 20.12,48.34 20.58,39.2 22.81,39.63 23.81,33.56 28.88,30.76 21.04,19.36 "></polygon> <polygon class="st0" points="40.01,7.11 42.24,11.18 40.01,15.4 34.94,16.82 34.94,8.8 "></polygon> <polygon class="st0" points="34.8,18.54 32.5,25.72 33.56,35.25 32.17,47.34 41.93,48.34 41.39,39.2 44.62,39.63 43.62,33.56 51.69,31.76 41.85,19.36 "></polygon> <polygon class="st0" points="62.12,7.11 63.35,12.18 60.12,16.4 56.05,15.82 56.05,8.8 "></polygon> <polygon class="st0" points="55.13,20.62 52.83,27.8 54.67,36.25 53.29,48.34 63.05,47.34 62.51,38.2 65.73,38.63 65.73,33.56 69.8,28.76 62.97,19.36 "></polygon> <g> <line class="st1" x1="11.93" y1="36.03" x2="11.93" y2="43.86"></line> <rect x="10.03" y="36.03" class="st1" width="3.81" height="10.05"></rect> <line class="st1" x1="16.79" y1="36.03" x2="16.79" y2="43.86"></line> <rect x="14.89" y="36.03" class="st1" width="3.81" height="10.05"></rect> <path class="st1" d="M14.5,17.34c-4.01,0-7.28,3.26-7.28,7.28v13.16h14.55V24.62C21.78,20.61,18.52,17.34,14.5,17.34z M18.4,33.98 h-7.8v-8.94c0-2.15,1.75-3.9,3.9-3.9c2.15,0,3.9,1.75,3.9,3.9V33.98z"></path> <path class="st1" d="M14.5,6.1c-2.69,0-4.88,2.19-4.88,4.89c0,2.7,2.19,4.89,4.88,4.89c2.69,0,4.87-2.19,4.87-4.89 C19.38,8.29,17.19,6.1,14.5,6.1z M14.5,12.25c-0.69,0-1.25-0.56-1.25-1.26c0-0.69,0.56-1.26,1.25-1.26c0.69,0,1.25,0.56,1.25,1.26 C15.75,11.68,15.19,12.25,14.5,12.25z"></path> <polygon class="st1" points="16.9,21.35 23.59,31.88 26.66,30.1 21.01,21.35 "></polygon> <polygon class="st1" points="8,21.48 2.24,30.41 5.31,32.19 12.11,21.48 "></polygon> </g> <g> <line class="st1" x1="33" y1="36.03" x2="33" y2="43.86"></line> <rect x="31.1" y="36.03" class="st1" width="3.81" height="10.05"></rect> <line class="st1" x1="37.86" y1="36.03" x2="37.86" y2="43.86"></line> <rect x="35.96" y="36.03" class="st1" width="3.81" height="10.05"></rect> <path class="st1" d="M35.57,17.34c-4.01,0-7.28,3.26-7.28,7.28v13.16h14.55V24.62C42.85,20.61,39.58,17.34,35.57,17.34z M39.47,33.98h-7.8v-8.94c0-2.15,1.75-3.9,3.9-3.9c2.15,0,3.9,1.75,3.9,3.9V33.98z"></path> <path class="st1" d="M35.57,6.1c-2.69,0-4.88,2.19-4.88,4.89c0,2.7,2.19,4.89,4.88,4.89c2.69,0,4.87-2.19,4.87-4.89 C40.45,8.29,38.26,6.1,35.57,6.1z M35.57,12.25c-0.69,0-1.25-0.56-1.25-1.26c0-0.69,0.56-1.26,1.25-1.26 c0.69,0,1.25,0.56,1.25,1.26C36.82,11.68,36.26,12.25,35.57,12.25z"></path> <polygon class="st1" points="37.97,21.35 44.66,31.88 47.73,30.1 42.08,21.35 "></polygon> <polygon class="st1" points="29.07,21.48 23.31,30.41 26.38,32.19 33.17,21.48 "></polygon> </g> <g> <line class="st1" x1="54.11" y1="36.03" x2="54.11" y2="43.86"></line> <rect x="52.21" y="36.03" class="st1" width="3.81" height="10.05"></rect> <line class="st1" x1="58.97" y1="36.03" x2="58.97" y2="43.86"></line> <rect x="57.07" y="36.03" class="st1" width="3.81" height="10.05"></rect> <path class="st1" d="M56.68,17.34c-4.01,0-7.28,3.26-7.28,7.28v13.16h14.55V24.62C63.96,20.61,60.7,17.34,56.68,17.34z M60.59,33.98h-7.8v-8.94c0-2.15,1.75-3.9,3.9-3.9c2.15,0,3.9,1.75,3.9,3.9V33.98z"></path> <path class="st1" d="M56.68,6.1c-2.69,0-4.88,2.19-4.88,4.89c0,2.7,2.19,4.89,4.88,4.89c2.69,0,4.87-2.19,4.87-4.89 C61.56,8.29,59.37,6.1,56.68,6.1z M56.68,12.25c-0.69,0-1.25-0.56-1.25-1.26c0-0.69,0.56-1.26,1.25-1.26 c0.69,0,1.25,0.56,1.25,1.26C57.93,11.68,57.37,12.25,56.68,12.25z"></path> <polygon class="st1" points="59.09,21.35 65.77,31.88 68.85,30.1 63.19,21.35 "></polygon> <polygon class="st1" points="50.18,21.48 44.42,30.41 47.49,32.19 54.29,21.48 "></polygon> </g> </svg> 